<svg width="408" height="48" viewBox="0 0 408 48" fill="none" xmlns="http://www.w3.org/2000/svg">
<g clip-path="url(#clip0_2_25)">
<path d="M0 20.5939V0H6.27178L8.00354 12.5553L9.7236 0H16.0539V20.5939H12.2861V5.75693L9.92252 20.5939H6.22498L3.72095 5.75693V20.5939H0Z" fill="#0F4C5C"/>
<path d="M17.3176 20.5939L19.3068 0H26.2923L28.2464 20.5939H24.35L24.0574 17.2708H21.5768L21.3194 20.5939H17.3176ZM21.8693 13.9828H23.7415L22.8405 3.51033H22.6533L21.8693 13.9828Z" fill="#0F4C5C"/>
<path d="M29.5101 20.5939V0H33.7459L35.6415 9.86402V0H39.6199V20.5939H35.5947L33.5353 10.297V20.5939H29.5101Z" fill="#0F4C5C"/>
<path d="M41.4452 20.5939V0H47.1086C48.5907 0 49.7062 0.413438 50.4551 1.24032C51.204 2.05939 51.5784 3.2607 51.5784 4.84425V14.4859C51.5784 16.4361 51.2352 17.9417 50.5487 19.0026C49.87 20.0635 48.6765 20.5939 46.9682 20.5939H41.4452ZM45.5874 16.9549H46.3012C47.0579 16.9549 47.4362 16.5882 47.4362 15.855V5.23039C47.4362 4.54392 47.3426 4.10318 47.1554 3.90816C46.976 3.70534 46.6054 3.60393 46.0438 3.60393H45.5874V16.9549Z" fill="#0F4C5C"/>
<path d="M52.7017 20.5939L54.6909 0H61.6764L63.6305 20.5939H59.734L59.4415 17.2708H56.9609L56.7035 20.5939H52.7017ZM57.2534 13.9828H59.1256L58.2246 3.51033H58.0374L57.2534 13.9828Z" fill="#0F4C5C"/>
<path d="M64.8942 20.5939V0H69.013V17.0836H73.2488V20.5939H64.8942Z" fill="#0F4C5C"/>
<path d="M74.2317 20.5939V0H78.2101V20.5939H74.2317Z" fill="#0F4C5C"/>
<path d="M79.8482 20.5939V0H83.9202V8.24927L85.8392 0H89.9814L87.6762 9.43108L90.4611 20.5939H86.1902L83.9436 10.6246V20.5939H79.8482Z" fill="#0F4C5C"/>
<path d="M90.6132 20.5939L92.6024 0H99.5879L101.542 20.5939H97.6456L97.353 17.2708H94.8724L94.615 20.5939H90.6132ZM95.1649 13.9828H97.0371L96.1361 3.51033H95.9489L95.1649 13.9828Z" fill="#0F4C5C"/>
<path d="M14.6039 18.0792C14.1778 18.2922 13.845 18.5052 13.6054 18.7182C13.3657 18.9312 13.1927 19.1376 13.0862 19.3373C12.993 19.5237 12.953 19.7034 12.9663 19.8765C12.993 20.0495 13.0595 20.196 13.166 20.3158C13.4456 20.6619 13.8117 20.7352 14.2644 20.5355C14.717 20.3224 15.2496 19.8165 15.862 19.0177C16.4477 18.2722 17.1467 17.6598 17.9588 17.1805C18.7842 16.7012 19.6363 16.3551 20.5149 16.1421C21.3936 15.9158 22.259 15.8159 23.111 15.8425C23.9764 15.8692 24.7352 16.009 25.3876 16.2619C26.0533 16.5149 26.5725 16.881 26.9452 17.3603C27.3313 17.8262 27.4844 18.3987 27.4045 19.0777C27.2847 20.1427 27.0118 21.088 26.5858 21.9134C26.1598 22.7255 25.6405 23.4377 25.0281 24.0502C24.429 24.6626 23.7567 25.1818 23.0112 25.6078C22.2789 26.0338 21.5334 26.3933 20.7746 26.6862C20.029 26.9658 19.2968 27.1854 18.5779 27.3452C17.8723 27.4916 17.2399 27.6048 16.6807 27.6847C16.9204 27.1788 17.1733 26.6662 17.4396 26.147C17.7192 25.6278 18.0054 25.1219 18.2983 24.6293C18.6045 24.1367 18.924 23.6707 19.2568 23.2314C19.5897 22.7921 19.9358 22.3993 20.2953 22.0532C20.3618 21.9866 20.4484 21.8734 20.5549 21.7137C20.6747 21.5406 20.7479 21.3675 20.7746 21.1945C20.8145 21.0214 20.7812 20.8683 20.6747 20.7352C20.5682 20.602 20.3219 20.5355 19.9358 20.5355C19.6962 20.5621 19.4765 20.6619 19.2768 20.835C19.0904 20.9948 18.924 21.1812 18.7776 21.3942C18.6311 21.5939 18.5113 21.7936 18.4181 21.9933C18.3382 22.193 18.285 22.3394 18.2583 22.4326C18.245 22.4858 18.1452 22.6789 17.9588 23.0117C17.7724 23.3446 17.5328 23.7639 17.2399 24.2698C16.9603 24.7757 16.6541 25.3415 16.3213 25.9673C15.9884 26.5797 15.6623 27.1987 15.3428 27.8245C14.9966 27.8511 14.8169 27.8511 14.8036 27.8245C14.311 27.7046 13.9116 27.7379 13.6054 27.9243C13.2992 28.1107 13.0928 28.337 12.9863 28.6033C12.8931 28.8562 12.9131 29.0892 13.0462 29.3022C13.1793 29.5152 13.439 29.5818 13.825 29.5019L14.6039 29.3422C14.3376 29.9413 14.1246 30.4871 13.9648 30.9797C13.8184 31.459 13.7651 31.8251 13.8051 32.078C13.845 32.3177 13.9249 32.4841 14.0447 32.5773C14.1645 32.6705 14.2843 32.7104 14.4042 32.6971C14.524 32.6705 14.6371 32.6106 14.7437 32.5174C14.8502 32.4109 14.9167 32.2844 14.9434 32.1379C14.9567 32.0714 15.0632 31.7519 15.2629 31.1794C15.4626 30.6069 15.7355 29.9013 16.0816 29.0626C16.6408 28.9694 17.2532 28.8895 17.9189 28.823C18.5845 28.7564 19.2502 28.7231 19.9158 28.7231C20.5948 28.7098 21.2405 28.7564 21.8529 28.8629C22.4653 28.9561 22.9979 29.1225 23.4505 29.3621C23.9032 29.6018 24.2493 29.9346 24.4889 30.3606C24.7286 30.7733 24.8018 31.2992 24.7086 31.9382C24.642 32.4042 24.4756 32.8901 24.2094 33.396C23.9431 33.8886 23.597 34.3746 23.1709 34.8538C22.7449 35.3464 22.259 35.8124 21.7131 36.2517C21.1673 36.6911 20.5815 37.0772 19.9558 37.41C19.3434 37.7428 18.6977 38.0024 18.0187 38.1888C17.3397 38.3885 16.6674 38.4817 16.0018 38.4684C15.203 38.4551 14.524 38.3819 13.9648 38.2487C13.419 38.1289 12.9597 37.9758 12.5869 37.7894C12.2141 37.603 11.9212 37.3967 11.7082 37.1704C11.4952 36.944 11.3288 36.7177 11.209 36.4914C11.1025 36.2784 11.0293 36.0787 10.9893 35.8923C10.9627 35.7192 10.9427 35.5794 10.9294 35.4729C10.9028 35.3265 10.8895 35.1068 10.8895 34.8139C10.9028 34.521 10.9028 34.2082 10.8895 33.8753C10.8895 33.5292 10.8762 33.1963 10.8495 32.8768C10.8362 32.544 10.7963 32.2711 10.7297 32.0581C10.6631 31.8451 10.5367 31.7119 10.3503 31.6587C10.1639 31.6054 9.97086 31.6121 9.77116 31.6786C9.57146 31.7452 9.38508 31.865 9.212 32.0381C9.05225 32.2112 8.95905 32.4109 8.93243 32.6372C8.87917 33.0632 8.87917 33.456 8.93243 33.8154C8.98568 34.1616 9.0589 34.4744 9.15209 34.754C9.24529 35.0336 9.33848 35.2599 9.43167 35.433C9.53818 35.6194 9.61806 35.7458 9.67131 35.8124C9.69794 35.8523 9.75119 35.9655 9.83107 36.1519C9.91095 36.3383 10.0308 36.5579 10.1905 36.8109C10.3636 37.0772 10.5966 37.3567 10.8895 37.6496C11.1957 37.9425 11.5884 38.2154 12.0677 38.4684C12.547 38.7213 13.1328 38.9344 13.825 39.1074C14.5306 39.2938 15.3627 39.4003 16.3213 39.4269C16.734 39.4403 17.2532 39.3737 17.8789 39.2272C18.518 39.0941 19.1903 38.8811 19.8959 38.5882C20.6015 38.3086 21.3071 37.9492 22.0127 37.5098C22.7316 37.0838 23.3773 36.5779 23.9498 35.9921C24.5355 35.4197 25.0148 34.774 25.3876 34.0551C25.7737 33.3228 25.9867 32.524 26.0266 31.6587C26.0532 30.993 25.9601 30.4405 25.747 30.0012C25.5473 29.5618 25.2744 29.209 24.9283 28.9428C24.5955 28.6632 24.2227 28.4568 23.81 28.3237C23.4106 28.1773 23.0311 28.0841 22.6717 28.0441C22.3255 27.9909 22.0327 27.9642 21.793 27.9642C21.5534 27.9642 21.4269 27.9642 21.4136 27.9642C21.4668 27.9509 21.6732 27.8644 22.0327 27.7046C22.4054 27.5316 22.8514 27.2919 23.3706 26.9857C23.8898 26.6662 24.449 26.2668 25.0481 25.7875C25.6472 25.3083 26.1997 24.7491 26.7056 24.1101C27.2248 23.4577 27.6642 22.7255 28.0236 21.9134C28.3964 21.088 28.6094 20.1693 28.6626 19.1575C28.7026 18.2389 28.5162 17.4601 28.1035 16.8211C27.7041 16.182 27.1449 15.6961 26.426 15.3633C25.7071 15.0171 24.8684 14.8174 23.9098 14.7642C22.9646 14.6976 21.9594 14.7841 20.8944 15.0238C19.8426 15.2501 18.7709 15.6229 17.6792 16.1421C16.6009 16.648 15.5757 17.2937 14.6039 18.0792Z" fill="#FB8B24"/>
<path d="M42.8116 11.0897C42.8249 10.8767 42.8249 10.6637 42.8116 10.4507C42.8116 10.2244 42.785 10.0247 42.7317 9.85159C42.6785 9.67852 42.6052 9.53873 42.5121 9.43222C42.4322 9.32571 42.319 9.27246 42.1726 9.27246C41.893 9.27246 41.5335 9.4655 41.0942 9.85159C40.6549 10.2244 40.1623 10.7436 39.6164 11.4092C39.0706 12.0616 38.4848 12.8404 37.8591 13.7457C37.2467 14.6377 36.6209 15.6029 35.9819 16.6413C35.3562 17.6798 34.7371 18.7648 34.1247 19.8964C33.5256 21.028 32.9598 22.1597 32.4273 23.2913C31.9081 24.4096 31.4421 25.508 31.0294 26.5863C30.6167 27.6514 30.2905 28.6499 30.0509 29.5818C29.8112 30.5004 29.6714 31.3258 29.6315 32.0581C29.6049 32.7903 29.7114 33.3761 29.951 33.8154C30.3238 34.4944 30.8164 34.8672 31.4288 34.9337C32.0545 35.0136 32.7335 34.8938 33.4657 34.5743C34.1979 34.2681 34.9501 33.8354 35.7223 33.2762C36.4945 32.7038 37.2067 32.118 37.8591 31.5189C38.5247 30.9065 39.0972 30.3407 39.5765 29.8214C40.0558 29.3022 40.3753 28.9361 40.535 28.7231C40.6282 28.6033 40.6615 28.4835 40.6349 28.3636C40.6083 28.2438 40.555 28.1506 40.4751 28.0841C40.4086 28.0042 40.322 27.9576 40.2155 27.9443C40.1223 27.931 40.0491 27.9709 39.9959 28.0641C39.8494 28.2904 39.5565 28.6432 39.1172 29.1225C38.6912 29.5885 38.1853 30.101 37.5995 30.6602C37.0137 31.206 36.3813 31.7452 35.7023 32.2777C35.0367 32.8103 34.391 33.2429 33.7653 33.5758C33.1395 33.8953 32.5671 34.0684 32.0478 34.095C31.5419 34.1216 31.1559 33.9019 30.8896 33.436C30.7298 33.1697 30.6433 32.8302 30.63 32.4175C30.6167 32.0048 30.6566 31.5388 30.7498 31.0196C30.843 30.4871 30.9828 29.908 31.1692 29.2823C31.3689 28.6565 31.6019 27.9975 31.8681 27.3052C32.8799 26.6928 33.8518 25.914 34.7837 24.9688C35.7156 24.0235 36.581 23.0051 37.3798 21.9134C38.1919 20.8217 38.9241 19.71 39.5765 18.5784C40.2288 17.4335 40.788 16.3618 41.254 15.3633C41.7332 14.3648 42.106 13.4861 42.3723 12.7272C42.6385 11.9684 42.785 11.4225 42.8116 11.0897ZM41.7532 10.5306C41.8863 10.5172 41.8863 10.7902 41.7532 11.3493C41.6201 11.8952 41.3738 12.6207 41.0143 13.526C40.6549 14.4313 40.1889 15.4498 39.6164 16.5814C39.0573 17.6997 38.4116 18.8247 37.6793 19.9563C36.9604 21.088 36.1683 22.1597 35.3029 23.1715C34.4376 24.17 33.5256 25.0021 32.5671 25.6677C33.0597 24.5494 33.6122 23.4045 34.2246 22.2329C34.837 21.048 35.456 19.8964 36.0818 18.7781C36.7208 17.6598 37.3465 16.6081 37.9589 15.6229C38.5846 14.6244 39.1571 13.7524 39.6763 13.0068C40.1955 12.2613 40.6349 11.6688 40.9943 11.2295C41.3671 10.7769 41.6201 10.5439 41.7532 10.5306Z" fill="#FB8B24"/>
<path d="M42.8071 24.8889C43.0467 24.9155 43.2198 24.9954 43.3263 25.1285C43.4328 25.2483 43.4927 25.3948 43.506 25.5679C43.5193 25.7276 43.4994 25.894 43.4461 26.0671C43.4062 26.2269 43.3529 26.3533 43.2864 26.4465C43.2198 26.553 43.0667 26.7128 42.827 26.9258C42.6007 27.1388 42.3544 27.3585 42.0882 27.5848C41.8219 27.8111 41.5756 28.0308 41.3493 28.2438C41.1363 28.4435 41.0031 28.59 40.9499 28.6832C40.1111 30.0012 39.5387 31.0396 39.2325 31.7985C38.9396 32.5573 38.7998 33.1231 38.8131 33.4959C38.8264 33.8687 38.9263 34.1016 39.1127 34.1948C39.299 34.2747 39.4588 34.3013 39.5919 34.2747C39.8049 34.2348 40.1045 34.1083 40.4906 33.8953C40.8767 33.669 41.3093 33.3894 41.7886 33.0566C42.2812 32.7104 42.8004 32.3243 43.3463 31.8983C43.9054 31.4723 44.4579 31.0329 45.0038 30.5803C45.5496 30.1143 46.0688 29.655 46.5614 29.2024C47.0673 28.7497 47.5133 28.3237 47.8994 27.9243C47.9793 27.8444 48.0525 27.8111 48.1191 27.8245C48.1989 27.8378 48.2655 27.8777 48.3188 27.9443C48.372 28.0108 48.3986 28.0974 48.3986 28.2039C48.4119 28.2971 48.3853 28.3903 48.3188 28.4835C48.1856 28.6698 47.926 28.9627 47.5399 29.3621C47.1538 29.7482 46.6879 30.1876 46.142 30.6801C45.5962 31.1594 45.0038 31.6587 44.3647 32.1779C43.739 32.6971 43.1133 33.1764 42.4876 33.6157C41.8618 34.0551 41.2761 34.4212 40.7302 34.7141C40.1844 35.0203 39.7251 35.1933 39.3523 35.2333C38.9529 35.2865 38.6334 35.2 38.3937 34.9737C38.1541 34.7473 38.0143 34.3945 37.9744 33.9153C37.9344 33.5558 37.9677 33.1431 38.0742 32.6771C38.194 32.2112 38.3405 31.7385 38.5136 31.2593C38.6999 30.7667 38.9063 30.2874 39.1326 29.8214C39.3589 29.3422 39.5786 28.9095 39.7916 28.5234C40.0046 28.124 40.1844 27.7912 40.3308 27.5249C40.4906 27.2586 40.5904 27.0856 40.6304 27.0057C40.6969 26.8726 40.8034 26.6795 40.9499 26.4266C41.0963 26.1736 41.2627 25.934 41.4491 25.7077C41.6355 25.468 41.8419 25.2683 42.0682 25.1086C42.3078 24.9355 42.5541 24.8623 42.8071 24.8889ZM45.6029 21.3143C45.7094 21.2344 45.8358 21.1479 45.9823 21.0547C46.142 20.9615 46.3018 20.8883 46.4616 20.835C46.6213 20.7818 46.7678 20.7618 46.9009 20.7751C47.0473 20.7884 47.1538 20.8616 47.2204 20.9948C47.2737 21.1412 47.2404 21.3476 47.1206 21.6138C47.0141 21.8402 46.841 22.0931 46.6013 22.3727C46.375 22.639 46.1221 22.8986 45.8425 23.1515C45.5629 23.3912 45.2767 23.6042 44.9838 23.7905C44.6909 23.9769 44.4313 24.0901 44.205 24.13C44.0585 24.17 43.9454 24.1766 43.8655 24.15C43.7856 24.1101 43.7257 24.0635 43.6857 24.0102C43.6458 23.9436 43.6258 23.8771 43.6258 23.8105C43.6258 23.744 43.6258 23.6907 43.6258 23.6508C43.6525 23.5309 43.7257 23.3712 43.8455 23.1715C43.9786 22.9718 44.1384 22.7654 44.3248 22.5524C44.5112 22.3261 44.7109 22.1064 44.9239 21.8934C45.1502 21.6671 45.3765 21.474 45.6029 21.3143Z" fill="#FB8B24"/>
<path d="M49.9493 24.5694C50.3087 24.2232 50.6416 24.0368 50.9478 24.0102C51.254 23.9836 51.4869 24.0435 51.6467 24.1899C51.8065 24.3231 51.8597 24.5095 51.8065 24.7491C51.7665 24.9887 51.5735 25.1951 51.2273 25.3682C50.3487 25.8075 49.7163 26.2202 49.3302 26.6063C48.9574 26.9924 48.7444 27.3585 48.6912 27.7046C48.6379 28.0508 48.7111 28.3903 48.9108 28.7231C49.1238 29.0559 49.3701 29.4021 49.6497 29.7615C49.9293 30.1077 50.2089 30.4804 50.4884 30.8798C50.768 31.2659 50.9611 31.6853 51.0676 32.1379C51.5602 32.0181 52.0661 31.8717 52.5853 31.6986C53.1178 31.5255 53.6437 31.3059 54.1629 31.0396C54.6821 30.7733 55.2013 30.4605 55.7206 30.101C56.2398 29.7283 56.7523 29.2889 57.2582 28.783C57.3781 28.6632 57.4979 28.5966 57.6177 28.5833C57.7375 28.57 57.8374 28.59 57.9172 28.6432C57.9971 28.6832 58.0371 28.763 58.0371 28.8829C58.0504 28.9894 57.9971 29.1092 57.8773 29.2423C57.398 29.8148 56.8855 30.314 56.3396 30.7401C55.7938 31.1661 55.228 31.5389 54.6422 31.8584C54.0697 32.1646 53.4773 32.4308 52.8649 32.6572C52.2658 32.8702 51.68 33.0499 51.1075 33.1964C51.1075 33.2496 51.0942 33.3428 51.0676 33.4759C50.9344 34.0218 50.7281 34.4811 50.4485 34.8538C50.1822 35.2399 49.8827 35.5528 49.5499 35.7924C49.217 36.0321 48.8709 36.2118 48.5114 36.3316C48.152 36.4647 47.8125 36.5579 47.493 36.6112C47.1868 36.6644 46.9205 36.6911 46.6942 36.6911C46.4679 36.7044 46.3214 36.711 46.2548 36.711C45.9486 36.711 45.6824 36.6578 45.456 36.5513C45.2164 36.4448 45.0167 36.3183 44.857 36.1719C44.6972 36.0254 44.5774 35.8657 44.4975 35.6926C44.4043 35.5328 44.3577 35.3997 44.3577 35.2932C44.3577 34.6808 44.5042 34.2082 44.797 33.8753C45.0899 33.5425 45.4893 33.2895 45.9952 33.1165C46.5144 32.9434 47.1202 32.8103 47.8125 32.7171C48.5048 32.6239 49.2503 32.5041 50.0491 32.3576C49.8627 31.7851 49.6231 31.3059 49.3302 30.9198C49.0373 30.5204 48.7577 30.1609 48.4915 29.8414C48.2252 29.5219 48.0055 29.209 47.8325 28.9028C47.6594 28.5966 47.5995 28.2505 47.6527 27.8644C47.706 27.465 47.9057 27.0057 48.2518 26.4865C48.598 25.9673 49.1638 25.3282 49.9493 24.5694ZM46.155 35.6526C46.581 35.7192 47.0004 35.6859 47.4131 35.5528C47.8258 35.433 48.2052 35.2599 48.5514 35.0336C48.9108 34.8073 49.217 34.5543 49.47 34.2747C49.7363 33.9818 49.9293 33.7023 50.0491 33.436C49.3834 33.5824 48.7577 33.7023 48.1719 33.7954C47.5995 33.8886 47.0936 33.9885 46.6542 34.095C46.2282 34.2015 45.8954 34.328 45.6557 34.4744C45.4028 34.6076 45.2763 34.7873 45.2763 35.0136C45.2763 35.3597 45.5692 35.5728 46.155 35.6526Z" fill="#FB8B24"/>
<path d="M59.7977 24.5694C60.1571 24.2232 60.49 24.0368 60.7962 24.0102C61.1024 23.9836 61.3354 24.0435 61.4951 24.1899C61.6549 24.3231 61.7081 24.5095 61.6549 24.7491C61.6149 24.9887 61.4219 25.1951 61.0757 25.3682C60.1971 25.8075 59.5647 26.2202 59.1786 26.6063C58.8058 26.9924 58.5928 27.3585 58.5396 27.7046C58.4863 28.0508 58.5595 28.3903 58.7592 28.7231C58.9723 29.0559 59.2186 29.4021 59.4981 29.7615C59.7777 30.1077 60.0573 30.4804 60.3369 30.8798C60.6164 31.2659 60.8095 31.6853 60.916 32.1379C61.4086 32.0181 61.9145 31.8717 62.4337 31.6986C62.9662 31.5255 63.4921 31.3059 64.0113 31.0396C64.5305 30.7733 65.0498 30.4605 65.569 30.101C66.0882 29.7283 66.6007 29.2889 67.1066 28.783C67.2265 28.6632 67.3463 28.5966 67.4661 28.5833C67.5859 28.57 67.6858 28.59 67.7657 28.6432C67.8455 28.6832 67.8855 28.763 67.8855 28.8829C67.8988 28.9894 67.8455 29.1092 67.7257 29.2423C67.2464 29.8148 66.7339 30.314 66.188 30.7401C65.6422 31.1661 65.0764 31.5389 64.4906 31.8584C63.9181 32.1646 63.3257 32.4308 62.7133 32.6572C62.1142 32.8702 61.5284 33.0499 60.9559 33.1964C60.9559 33.2496 60.9426 33.3428 60.916 33.4759C60.7829 34.0218 60.5765 34.4811 60.2969 34.8538C60.0307 35.2399 59.7311 35.5528 59.3983 35.7924C59.0654 36.0321 58.7193 36.2118 58.3598 36.3316C58.0004 36.4647 57.6609 36.5579 57.3414 36.6112C57.0352 36.6644 56.7689 36.6911 56.5426 36.6911C56.3163 36.7044 56.1698 36.711 56.1033 36.711C55.7971 36.711 55.5308 36.6578 55.3045 36.5513C55.0648 36.4448 54.8651 36.3183 54.7054 36.1719C54.5456 36.0254 54.4258 35.8657 54.3459 35.6926C54.2527 35.5328 54.2061 35.3997 54.2061 35.2932C54.2061 34.6808 54.3526 34.2082 54.6455 33.8753C54.9384 33.5425 55.3377 33.2895 55.8436 33.1165C56.3629 32.9434 56.9686 32.8103 57.6609 32.7171C58.3532 32.6239 59.0987 32.5041 59.8975 32.3576C59.7111 31.7851 59.4715 31.3059 59.1786 30.9198C58.8857 30.5204 58.6061 30.1609 58.3399 29.8414C58.0736 29.5219 57.8539 29.209 57.6809 28.9028C57.5078 28.5966 57.4479 28.2505 57.5011 27.8644C57.5544 27.465 57.7541 27.0057 58.1002 26.4865C58.4464 25.9673 59.0122 25.3282 59.7977 24.5694ZM56.0034 35.6526C56.4294 35.7192 56.8488 35.6859 57.2615 35.5528C57.6742 35.433 58.0536 35.2599 58.3998 35.0336C58.7593 34.8073 59.0655 34.5543 59.3184 34.2747C59.5847 33.9818 59.7777 33.7023 59.8975 33.436C59.2319 33.5824 58.6061 33.7023 58.0204 33.7954C57.4479 33.8886 56.942 33.9885 56.5027 34.095C56.0766 34.2015 55.7438 34.328 55.5042 34.4744C55.2512 34.6076 55.1247 34.7873 55.1247 35.0136C55.1247 35.3597 55.4176 35.5728 56.0034 35.6526Z" fill="#FB8B24"/>
<path fill-rule="evenodd" clip-rule="evenodd" d="M75.9366 14.225C76.2561 13.7856 76.5623 13.526 76.8552 13.4462C77.1614 13.3663 77.4077 13.3863 77.5941 13.5061C77.7938 13.6259 77.907 13.8123 77.9336 14.0652C77.9735 14.3182 77.8737 14.5645 77.634 14.8041C77.5142 14.9239 77.3411 15.1037 77.1148 15.3433C76.9018 15.5696 76.6755 15.8159 76.4358 16.0822C76.1962 16.3484 75.9699 16.6081 75.7569 16.861C75.5572 17.1006 75.4107 17.287 75.3175 17.4202C73.2939 20.4023 71.4434 23.3246 69.7659 26.1869C68.0884 29.036 66.6173 31.6986 65.3526 34.1749C65.5789 34.2414 65.8119 34.3413 66.0515 34.4744C66.3045 34.5942 66.5441 34.7806 66.7704 35.0336C67.4361 34.6076 68.1217 34.1349 68.8273 33.6157C69.5329 33.0832 70.2119 32.544 70.8643 31.9982C71.5299 31.4523 72.149 30.9331 72.7215 30.4405C73.2939 29.9346 73.7799 29.4886 74.1793 29.1025C74.592 28.7164 74.8982 28.4236 75.0979 28.2239C75.2976 28.0108 75.3575 27.931 75.2776 27.9842C75.4507 27.8644 75.5838 27.8178 75.677 27.8444C75.7835 27.8711 75.8567 27.931 75.8967 28.0242C75.9499 28.104 75.9765 28.1972 75.9765 28.3037C75.9765 28.4102 75.9632 28.4901 75.9366 28.5434C75.9233 28.5567 75.7968 28.6898 75.5572 28.9428C75.3175 29.1824 74.9914 29.5019 74.5787 29.9013C74.1659 30.3007 73.68 30.76 73.1208 31.2792C72.5617 31.7851 71.9626 32.311 71.3236 32.8569C70.6845 33.3894 70.0189 33.9219 69.3266 34.4545C68.6343 34.9737 67.9487 35.4463 67.2697 35.8723C67.4294 36.2185 67.5493 36.6445 67.6291 37.1504C67.7223 37.6563 67.7556 38.2487 67.729 38.9277C67.7157 39.4602 67.5825 40.046 67.3296 40.685C67.0766 41.3374 66.7505 41.9964 66.3511 42.6621C65.9517 43.3277 65.5057 43.9734 65.0131 44.5991C64.5205 45.2249 64.0279 45.784 63.5353 46.2766C63.0294 46.7692 62.5501 47.1686 62.0975 47.4748C61.6448 47.7943 61.2588 47.9674 60.9392 47.994C60.2603 48.0473 59.8276 47.8076 59.6412 47.2751C59.4415 46.7426 59.4348 45.9904 59.6212 45.0185C59.8076 44.0466 60.1604 42.9017 60.6796 41.5837C61.1855 40.2657 61.7979 38.8478 62.5169 37.3301C62.2106 37.2502 61.9444 37.0971 61.7181 36.8708C61.4784 36.6578 61.3719 36.3316 61.3985 35.8923C61.4252 35.5195 61.6648 35.1667 62.1175 34.8339C62.5568 34.501 63.2158 34.2681 64.0945 34.1349C64.7868 32.777 65.519 31.3991 66.2912 30.0012C67.0766 28.6033 67.8555 27.2387 68.6276 25.9074C69.3998 24.5627 70.1587 23.278 70.9042 22.0532C71.6631 20.8284 72.362 19.7034 73.001 18.6783C73.6401 17.6531 74.2125 16.7612 74.7184 16.0023C75.2243 15.2301 75.6304 14.6377 75.9366 14.225ZM66.431 36.3516C66.5508 36.6578 66.6373 37.0172 66.6906 37.43C66.7571 37.856 66.7771 38.3552 66.7505 38.9277C66.7105 39.5534 66.5508 40.1991 66.2712 40.8648C65.9916 41.5304 65.6455 42.1695 65.2328 42.7819C64.8067 43.4076 64.3541 43.9867 63.8748 44.5193C63.3822 45.0651 62.9229 45.5244 62.4969 45.8972C62.0576 46.2833 61.6781 46.5628 61.3586 46.7359C61.0258 46.909 60.8194 46.9423 60.7395 46.8358C60.5931 46.6627 60.5598 46.3099 60.6397 45.7774C60.7063 45.2581 60.8727 44.5858 61.1389 43.7604C61.3919 42.9483 61.7447 42.0031 62.1973 40.9247C62.6367 39.8463 63.1625 38.6614 63.775 37.37C64.1744 37.3035 64.6004 37.1837 65.053 37.0106C65.4924 36.8375 65.9517 36.6179 66.431 36.3516ZM62.8763 36.5513C63.0228 36.2584 63.1692 35.9655 63.3157 35.6726C63.4621 35.3797 63.6152 35.0802 63.775 34.774C63.3889 34.8538 63.056 35.0003 62.7765 35.2133C62.4969 35.4263 62.3638 35.6859 62.3771 35.9921C62.3904 36.2983 62.5568 36.4847 62.8763 36.5513ZM64.2742 36.3716C64.5405 36.2784 64.8134 36.1585 65.093 36.0121C65.3725 35.879 65.6654 35.7192 65.9716 35.5328C65.8252 35.3464 65.6654 35.2 65.4924 35.0935C65.3326 34.987 65.1728 34.9004 65.0131 34.8339L64.2742 36.3716Z" fill="#FB8B24"/>
<path d="M82.8072 24.4096C83.0601 24.3697 83.2465 24.3963 83.3663 24.4895C83.4861 24.5694 83.566 24.6825 83.606 24.829C83.6459 24.9621 83.6459 25.1086 83.606 25.2683C83.5793 25.4281 83.5394 25.5612 83.4861 25.6677C83.353 25.9074 83.14 26.1936 82.8471 26.5264C82.5675 26.8459 82.268 27.1588 81.9485 27.465C81.6423 27.7712 81.3627 28.0508 81.1097 28.3037C80.8568 28.5434 80.7037 28.7031 80.6504 28.783C80.0247 29.7948 79.5854 30.6003 79.3324 31.1994C79.0928 31.7851 78.9929 32.2112 79.0329 32.4774C79.0861 32.7304 79.2525 32.8435 79.5321 32.8169C79.8117 32.7903 80.1578 32.6705 80.5705 32.4575C80.9966 32.2445 81.4625 31.9582 81.9684 31.5988C82.4876 31.226 83.0002 30.8333 83.5061 30.4205C84.012 29.9945 84.4913 29.5685 84.9439 29.1425C85.3966 28.7164 85.7694 28.3304 86.0623 27.9842C86.1421 27.9043 86.2353 27.8711 86.3418 27.8844C86.4617 27.8844 86.5682 27.9177 86.6614 27.9842C86.7545 28.0508 86.8211 28.1373 86.861 28.2438C86.901 28.337 86.881 28.4236 86.8011 28.5034C86.0556 29.3155 85.2967 30.0544 84.5246 30.7201C83.7657 31.3724 83.0335 31.9249 82.3279 32.3776C81.6223 32.8169 80.9699 33.1498 80.3708 33.3761C79.7851 33.5891 79.2991 33.669 78.913 33.6157C78.527 33.5625 78.2673 33.3628 78.1342 33.0166C78.0144 32.6572 78.061 32.1313 78.274 31.439C77.9412 31.7985 77.595 32.1513 77.2356 32.4974C76.8894 32.8302 76.5499 33.1298 76.2171 33.396C75.8976 33.6623 75.5847 33.882 75.2785 34.0551C74.9856 34.2148 74.7194 34.308 74.4797 34.3346C73.9738 34.4012 73.5944 34.3613 73.3415 34.2148C73.1018 34.0684 72.9487 33.8487 72.8821 33.5558C72.8156 33.2629 72.8289 32.9234 72.9221 32.5373C73.0153 32.1379 73.1484 31.7252 73.3215 31.2992C73.4946 30.8599 73.6943 30.4205 73.9206 29.9812C74.1602 29.5419 74.3865 29.1358 74.5996 28.763C74.8126 28.3903 75.0056 28.0641 75.1787 27.7845C75.3518 27.5049 75.4649 27.3119 75.5182 27.2054C75.6912 26.8459 75.8776 26.4998 76.0773 26.167C76.277 25.8341 76.4834 25.5479 76.6964 25.3083C76.9094 25.0553 77.1291 24.8623 77.3554 24.7291C77.595 24.596 77.8347 24.5561 78.0743 24.6093C78.2474 24.6493 78.3472 24.7558 78.3739 24.9288C78.4138 25.1019 78.3938 25.3016 78.3139 25.5279C78.2474 25.7542 78.1409 25.9872 77.9944 26.2269C77.848 26.4532 77.6949 26.6396 77.5351 26.786C77.2822 27.0123 77.0092 27.3052 76.7164 27.6647C76.4368 28.0108 76.1572 28.3903 75.8776 28.803C75.598 29.2157 75.3251 29.6351 75.0589 30.0611C74.7926 30.4871 74.5596 30.8932 74.3599 31.2792C74.1602 31.652 74.0005 31.9848 73.8806 32.2777C73.7741 32.5573 73.7209 32.757 73.7209 32.8768C73.7342 33.2496 73.834 33.4693 74.0204 33.5358C74.2068 33.5891 74.4265 33.5691 74.6794 33.4759C74.9324 33.3694 75.1853 33.223 75.4383 33.0366C75.7046 32.8502 75.9176 32.6971 76.0773 32.5773C76.4235 32.311 76.8029 31.9382 77.2156 31.459C77.6283 30.9797 78.0344 30.4871 78.4338 29.9812C78.8332 29.4753 79.1926 29.0027 79.5121 28.5633C79.845 28.1107 80.0913 27.7845 80.251 27.5848C80.3309 27.4517 80.4108 27.3252 80.4907 27.2054C80.5839 27.0723 80.6837 26.9325 80.7902 26.786C80.9899 26.4931 81.1763 26.2069 81.3494 25.9273C81.5224 25.6477 81.6889 25.4014 81.8486 25.1884C82.0084 24.9754 82.1681 24.8024 82.3279 24.6692C82.4876 24.5228 82.6474 24.4362 82.8072 24.4096Z" fill="#FB8B24"/>
<path d="M98.6258 11.0897C98.5992 11.4225 98.4527 11.9684 98.1864 12.7272C97.9202 13.4861 97.5474 14.3648 97.0681 15.3633C96.6022 16.3618 96.043 17.4335 95.3907 18.5784C94.7383 19.71 94.0061 20.8217 93.194 21.9134C92.3952 23.0051 91.5298 24.0235 90.5979 24.9688C89.666 25.914 88.6941 26.6928 87.6823 27.3052C87.416 27.9975 87.1831 28.6565 86.9834 29.2823C86.797 29.908 86.6572 30.4871 86.564 31.0196C86.4708 31.5388 86.4309 32.0048 86.4442 32.4175C86.4575 32.8302 86.544 33.1697 86.7038 33.436C86.97 33.9019 87.3561 34.1216 87.862 34.095C88.3813 34.0684 88.9537 33.8953 89.5794 33.5758C90.2052 33.2429 90.8509 32.8103 91.5165 32.2777C92.1955 31.7452 92.8279 31.206 93.4137 30.6602C93.9994 30.101 94.5053 29.5885 94.9314 29.1225C95.3707 28.6432 95.6636 28.2904 95.81 28.0641C95.8633 27.9709 95.9365 27.931 96.0297 27.9443C96.1362 27.9576 96.2227 28.0042 96.2893 28.0841C96.3692 28.1506 96.4225 28.2438 96.4491 28.3636C96.4757 28.4835 96.4424 28.6033 96.3492 28.7231C96.1895 28.9361 95.8699 29.3022 95.3907 29.8214C94.9114 30.3407 94.3389 30.9065 93.6733 31.5189C93.0209 32.118 92.3087 32.7038 91.5365 33.2762C90.7643 33.8354 90.0121 34.2681 89.2799 34.5743C88.5477 34.8938 87.8687 35.0136 87.243 34.9337C86.6306 34.8672 86.138 34.4944 85.7652 33.8154C85.5256 33.3761 85.4191 32.7903 85.4457 32.0581C85.4856 31.3258 85.6254 30.5004 85.8651 29.5818C86.1047 28.6499 86.4309 27.6514 86.8436 26.5863C87.2563 25.508 87.7223 24.4096 88.2415 23.2913C88.774 22.1597 89.3398 21.028 89.9389 19.8964C90.5513 18.7648 91.1704 17.6798 91.7961 16.6413C92.4351 15.6029 93.0609 14.6377 93.6733 13.7457C94.299 12.8404 94.8848 12.0616 95.4306 11.4092C95.9765 10.7436 96.469 10.2244 96.9084 9.85159C97.3477 9.4655 97.7072 9.27246 97.9868 9.27246C98.1332 9.27246 98.2464 9.32571 98.3262 9.43222C98.4194 9.53873 98.4927 9.67852 98.5459 9.85159C98.5992 10.0247 98.6258 10.2244 98.6258 10.4507C98.6391 10.6637 98.6391 10.8767 98.6258 11.0897ZM97.5674 10.5306C97.4343 10.5439 97.1813 10.7769 96.8085 11.2295C96.4491 11.6688 96.0097 12.2613 95.4905 13.0068C94.9713 13.7524 94.3988 14.6244 93.7731 15.6229C93.1607 16.6081 92.535 17.6598 91.896 18.7781C91.2702 19.8964 90.6512 21.048 90.0387 22.2329C89.4263 23.4045 88.8738 24.5494 88.3813 25.6677C89.3398 25.0021 90.2518 24.17 91.1171 23.1715C91.9825 22.1597 92.7746 21.088 93.4935 19.9563C94.2258 18.8247 94.8715 17.6997 95.4306 16.5814C96.0031 15.4498 96.469 14.4313 96.8285 13.526C97.188 12.6207 97.4343 11.8952 97.5674 11.3493C97.7005 10.7902 97.7005 10.5172 97.5674 10.5306Z" fill="#FB8B24"/>
</g>
<defs>
<clipPath id="clip0_2_25">
<rect width="407.5" height="48" fill="white"/>
</clipPath>
</defs>
</svg>
